<?xml version="1.0" encoding="utf-8"?>
<!-- Generator: Adobe Illustrator 17.0.2, SVG Export Plug-In . SVG Version: 6.00 Build 0)  -->
<!DOCTYPE svg PUBLIC "-//W3C//DTD SVG 1.1//EN" "http://www.w3.org/Graphics/SVG/1.1/DTD/svg11.dtd">
<svg version="1.1" id="Layer_1" xmlns="http://www.w3.org/2000/svg" xmlns:xlink="http://www.w3.org/1999/xlink" x="0px" y="0px"
	 width="680px" height="620px" viewBox="0 0 680 620" enable-background="new 0 0 680 620" xml:space="preserve">
<g>
	<path fill="#E6E6E6" stroke="#000000" stroke-width="3" stroke-miterlimit="10" d="M300.37,327.371l-9.016-13.5l-14.082-13.126
		c-3.401-9.675-10.112-29.77-11.772-37.245c-2.434-10.952-3.351-19.275-7.391-31c-3.653-10.604-6.301-12.909-9.865-19.166
		C245.644,208.771,241.5,203,241.5,203s-4.253-9.285-4.834-18.5c-0.345-5.487-1.333-17.5-1.333-17.5s3.091-13.167,2.167-20.167
		c-0.925-7-5.692-22.833-15.25-28.833c-9.558-6-15.417-5.666-15.417-5.666s-15.701-1.166-19.708-3.834
		c-4.007-2.666-6.238-8.834-6.238-8.834l-0.449-13.041L165.926,87.5l-16.301-1.188L149,99.666c0,0-1.042,4.918-5.375,7.584
		c-4.333,2.668-24.791,6.584-24.791,6.584s-3-1.584-13.334,4.416S94.75,139,93.75,146S93,164.5,93,164.5s-1.127,14.513-1.5,20
		C90.874,193.715,83,207,83,207s-2.69,2.771-5.5,7.334c-3.855,6.257-5.384,8.896-9.333,19.499c-4.368,11.725-6.369,23.381-9,34.333
		c-1.796,7.476-7.667,24-12.998,33.579l-15.225,13.126l-8.775,13.5c0,0-1.65,3.525-0.376,5.55c1.275,2.025,12.45-8.7,12.45-8.7
		s-0.9,28.481-0.675,30.301c0.225,1.818,1.463,3.111,2.306,3.506c0.844,0.394,2.495-0.507,2.495-0.507s1.499,2.307,2.456,2.588
		c0.956,0.281,4.444-0.788,4.444-0.788s0.694,0.844,2.193,0.338c1.5-0.506,4.669-5.85,4.669-5.85s2.941-0.128,4.215-1.853
		c1.276-1.725,6.622-22.822,6.622-22.822l2.099-20.756c0,0,3.617-5.221,12.599-18.877C86.65,276.844,91.667,264.333,96,256.75
		c4.333-7.584,5.667-14.084,7.167-22.25s3.667-19.916,3.667-19.916l6.666-19.667c0,0,8.985,23.917,9.333,36.916
		c0.584,21.75-13.667,34.167-20.333,58.667c-6.241,22.936,1.334,62.001,4.666,81.668c3.334,19.667,15.668,46.333,16.334,57.666
		c0.666,11.333-9.334,35.667-7.334,55.667s13.917,48.582,16,54.666c1.283,3.745,2.835,25.816,2.834,33.666
		c0,4.999-4.833,8.667-4.833,8.667s-8.751,4.418-10.917,6.417c-2.166,1.999-3.334,6.666-1.25,7.666s4.5,0.917,4.5,0.917l5.667-0.167
		c0,0,4.167,0.751,7.75,0.834c3.583,0.083,6.583-1.667,6.583-1.667s6.418,1,8.417,0.833c1.999-0.167,5.166-2.747,5.583-4.665
		c0.417-1.918-0.584-2.832-1-6.25c-0.416-3.418,0.918-11.416,0.334-14.792c-0.584-3.376-2.583-7.25-3-11.396
		c-0.417-4.146-1.334-45.364,2-68.031c3.333-22.667-2.667-30.349-2.334-33.016c0.333-2.667,0.667-7.675,3-11.341
		c2.333-3.666,1.667-15.671,1.667-15.671s2.208-13.379,2.708-42.046s5.375-53.875,5.375-53.875l2-0.25c0,0,2.787,23.958,3.25,52.625
		c0.463,28.667,4.059,42.546,4.059,42.546s-0.616,12.005,1.542,15.671c2.157,3.666,2.466,8.674,2.774,11.341
		c0.309,2.667-5.241,10.349-2.158,33.016c3.083,22.667,2.235,63.885,1.85,68.031s-2.234,8.021-2.775,11.396
		c-0.539,3.376,0.694,11.374,0.31,14.792c-0.386,3.418-1.311,4.332-0.925,6.25c0.385,1.918,3.314,4.498,5.164,4.665
		c1.849,0.167,7.785-0.833,7.785-0.833s2.773,1.75,6.088,1.667c3.314-0.083,7.168-0.834,7.168-0.834l5.242,0.167
		c0,0,2.234,0.083,4.162-0.917c1.927-1,0.847-5.667-1.156-7.666c-2.004-1.999-10.098-6.417-10.098-6.417s-4.47-3.668-4.471-8.667
		c0-7.85,1.92-26.588,3.106-30.333c1.928-6.084,12.465-37.999,14.314-57.999c1.851-20-7.398-44.334-6.783-55.667
		c0.616-11.333,12.025-37.999,15.107-57.666c3.083-19.667,12.02-51.747,6.195-74.668c-8.998-35.418-20.75-42.75-20.25-64.5
		c0.299-12.999,9.75-35.833,9.75-35.833l4.613,17.417c0,0,0.309,11.25,1.695,19.416s6.184,17.666,10.191,25.25
		c4.007,7.583,8.691,17.594,17,31.25c8.309,13.656,9.792,18.877,9.792,18.877l1.941,20.756c0,0,4.945,21.098,6.125,22.822
		c1.18,1.726,3.899,1.853,3.899,1.853s2.931,5.344,4.318,5.85c1.387,0.506,2.029-0.338,2.029-0.338s3.226,1.069,4.11,0.788
		c0.884-0.281,2.271-2.588,2.271-2.588s1.527,0.9,2.307,0.507c0.78-0.395,1.925-1.688,2.133-3.506
		c0.207-1.819,0.276-30.301,0.276-30.301s10.336,10.726,11.515,8.7C301.896,330.897,300.37,327.371,300.37,327.371z"/>
	<path stroke="#000000" stroke-miterlimit="10" d="M109.5,153.625c0,0,4.666,13.375,3.833,17.042
		c-5.284,23.257,2.667,30,13.167,32.333c19.147,4.255,27.875-18.125,27.875-18.125l0.5-2.75c0,0-11.042,24.708-30.209,18.208
		c-13.29-4.507-10.408-15.776-9-29.5c0.5-4.875-4.041-15.708-4.041-15.708L109.5,153.625z"/>
	<path stroke="#000000" stroke-miterlimit="10" d="M88.167,212.312c0,0,1.333,2.146,4.522,3c3.313,0.887,6.436,0.75,6.436,0.75
		s-3.875-0.916-6.125-1.875s-2.854-1.771-2.854-1.771L88.167,212.312z"/>
	<path stroke="#000000" stroke-miterlimit="10" d="M37.619,337.061l-0.302,1.114l1.652-0.074c0,0,0.026,2.61-0.155,4.058
		c-0.181,1.447-0.886,5.702-1.055,8.965c-0.169,3.263-0.068,6.724-0.068,6.724l1.615,0.842c0,0-0.148-7.897,0.253-10.885
		c0.4-2.973,0.668-3.41,0.836-5.153c0.169-1.744,0.26-4.493,0.26-4.493l4.56,0.008c0,0,0.475,1.061,0.264,2.355
		c-0.211,1.294-0.443,1.688-0.83,3.544c-0.387,1.856-0.814,15.418-0.814,15.418l-0.648,3.018h2.082l-0.057-3.621
		c0,0,0.313-10.283,0.545-12.001c0.383-2.831,1.215-4.401,1.368-5.747c0.104-0.924-0.111-2.815-0.111-2.815l7.312-0.314l1.735-0.258
		l1.978-1.818c0,0-3.122,1.112-9.478,0.972c-6.356-0.141-8.916,0.028-8.916,0.028L37.619,337.061z"/>
	<path stroke="#000000" stroke-miterlimit="10" d="M50.922,355.315c0,0,0.394-6.412,0.675-7.397
		c0.281-0.984,0.197-2.841,0.365-3.853c0.169-1.013,1.294-3.347,2.053-3.628c0.759-0.281,1.435,0.591,1.294,1.575
		c-0.141,0.984-1.435,1.012-1.828,2.024c-0.394,1.013-0.366,3.86-0.535,4.532c-0.169,0.671-0.647,2.809-0.647,3.877
		c0,1.069,0.028,2.223,0.028,2.223L50.922,355.315z"/>
	<path stroke="#000000" stroke-miterlimit="10" d="M35.186,323.069c0,0,0.155-0.225,0.872-0.38c0.717-0.154,3.492-0.47,3.397,0.3
		c-0.093,0.769-1.589,1.605-2.062,1.856c-0.638,0.337-1.394,0.625-2.343,0.956L35.186,323.069z"/>
	<path stroke="#000000" stroke-miterlimit="10" d="M126.166,420.209l-1.332,0.75c0,0,2.207,7.5,4.582,9.875
		s10.043,3.042,10.043,3.042s-6.918-1.668-9.334-4.959c-2.416-3.291-3.959-8.875-3.959-8.875"/>
	<path stroke="#000000" stroke-miterlimit="10" d="M128.584,433.459c0,0-0.064,2.313,0.291,2.917
		c0.354,0.603,2.667,3.771,3.084,4.083c0.416,0.311,1.041-0.125,1.041-0.125s-1.584-3.896-2.584-5.125
		C129.417,433.979,128.584,433.459,128.584,433.459z"/>
	<path stroke="#000000" stroke-miterlimit="10" d="M135.854,456.125c-0.208-0.647-2.563-3.083-4.063-6.083
		c-1.704-3.409-1.291-8.208-1.291-8.208l-1.166-1.667c0,0-0.168,8.209,1.5,10.792c1.283,1.989,2.749,5.042,3.166,5.583
		c0.417,0.541,1.459,0.959,1.459,0.959S136.062,456.772,135.854,456.125z"/>
	<path stroke="#000000" stroke-miterlimit="10" d="M145,584.333l0.502,2.033c0,0-2.109,2.053-2.922,4.86
		c-1.227,4.247,1.842,4.566,1.842,4.566l-4.197,0.884l1.442-5.427l1.552-4.344l0.281-2.073L145,584.333z"/>
	<path stroke="#000000" stroke-miterlimit="10" d="M134.946,597.315l-2.848-0.123c0,0-0.122-2.062,0.589-3.093
		c0.713-1.03,1.031-0.785,1.621-2.233c0.589-1.448,0-3.462,1.596-4.934c1.595-1.473,2.281-1.67,2.675-1.424
		c0.394,0.246-0.343,3.02-1.227,3.879c-0.883,0.859-2.945,3.757-3.068,5.327C134.16,596.283,134.946,597.315,134.946,597.315z"/>
	<path stroke="#000000" stroke-miterlimit="10" d="M124.637,596.75c0,0,1.178-0.909,1.791-2.087
		c0.614-1.178-0.344-1.693,0.541-2.945c0.883-1.252,2.528-4.296,3.289-5.032c0.761-0.736,1.375-1.497,1.891-1.301
		c0.516,0.196-0.271,1.742-0.859,2.749c-0.59,1.007-2.873,3.166-3.045,4.541c-0.171,1.375-0.564,3.117-0.195,3.952
		C128.416,597.462,124.637,596.75,124.637,596.75z"/>
	<path stroke="#000000" stroke-miterlimit="10" d="M141.77,582.513"/>
	<path stroke="#000000" stroke-miterlimit="10" d="M121.993,596.874c0,0-0.741-0.864-0.647-2.438
		c0.092-1.573,0.986-3.116,2.684-4.535c1.697-1.419,3.239-2.437,3.578-2.745c0.34-0.309,0.062-0.957,0.062-0.957
		s-5.307,3.424-6.973,6.263c-0.401,0.685-0.771,3.579,0.34,4.474C122.147,597.83,121.993,596.874,121.993,596.874z"/>
	<path fill="#E6E6E6" stroke="#000000" stroke-width="3" stroke-miterlimit="10" d="M195.999,56.666
		c-1.305-1.833-3.241,0.209-3.241,0.209s1.59-13.812-0.857-20.312c-2.446-6.5-9.99-11.979-14.558-13.312S165.334,22,165.334,22
		s-7.605-0.083-12.272,1.25c-4.667,1.333-12.375,6.812-14.875,13.312c-2.5,6.5-0.875,20.312-0.875,20.312s-1.979-2.042-3.312-0.209
		c-1.334,1.834,2.312,14.771,4.812,16.521c1.451,1.016,2.625,0.562,2.625,0.562s0.25,2.083,1.75,5.25s12.188,17.5,22.125,17.75
		C175.25,97,185.539,82.167,187.008,79c1.468-3.167,1.713-5.25,1.713-5.25s1.148,0.453,2.568-0.562
		C193.736,71.438,197.305,58.5,195.999,56.666z"/>
	<path d="M145.75,53.75c0.187,0,7.289-4.115,9.154-4.033c3.127,0.139,6.008,1.67,6.564,2.448c0.521,0.729-0.987,1.335-1.685,1.288
		c-0.699-0.048-3.896-1.633-5.325-1.559c-1.43,0.075-6.914,2.448-6.914,2.448L145.75,53.75z"/>
	<g>
		<circle cx="154.707" cy="57.519" r="2.012"/>
		<path d="M149.492,58.008l1.113-0.071c0,0,1.9-1.184,3.607-1.147c1.707,0.035,2.716,0.968,3.184,1.094
			c0.467,0.125,3.27,0.701,3.27,0.701s-2.588-2.731-3.953-3.198c-1.364-0.467-6.458-0.711-7.338-0.136
			c-0.88,0.575,0.117,2.687,0.117,2.687"/>
	</g>
	<g>
		<ellipse cx="177.589" cy="57.519" rx="2" ry="2.013"/>
		<path d="M182.773,58.008l-1.107-0.071c0,0-1.889-1.184-3.586-1.147c-1.696,0.035-2.699,0.968-3.164,1.094
			c-0.465,0.125-3.25,0.701-3.25,0.701s2.571-2.731,3.929-3.198c1.356-0.467,5.718-0.148,6.593,0.427
			c0.874,0.575,0.586,2.124,0.586,2.124"/>
	</g>
	<path d="M157.125,80.312c0,0,4.312-2.469,5.656-2.344c1.54,0.143,1.625,0.844,2.625,0.844c0.936,0,1.625-0.719,2.781-0.719
		c1.781,0,5.281,2.438,5.281,2.438l-6.062,0.125c-1.084,0.166-3.791,0.312-4.625,0.062
		C161.947,80.469,157.125,80.312,157.125,80.312z"/>
	<path d="M158.116,81.812c0.113,0.038,5.704,0.453,7.291,0.453c1.587,0,7.29-0.378,7.29-0.378s-3.778,2.55-4.419,2.72
		c-0.642,0.17-4.477,0.114-5.327-0.075C162.101,84.343,158.116,81.812,158.116,81.812z"/>
	<path d="M161.219,69.703c0,0-0.949,2.161-0.156,2.922c0.781,0.75,2.406,0.438,2.406,0.438s1.203,0.625,2.531,0.656
		c1.328,0.031,2.797-0.812,2.797-0.812s0.94,0.025,1.531-0.141c0.609-0.172,1.484-0.766,1.609-2.109
		c0.166-1.78-2.609-4.375-2.906-5.094c-0.297-0.719-0.844-8.594-0.844-8.594l-0.844,1.156c0,0,0.181,6.756,0.5,8
		c0.297,1.156,2.906,3.149,2.609,4.828C170.312,71.75,169.25,72,169.25,72s-0.438-0.891-0.859-0.688
		c-0.422,0.203-0.609,1.219-0.609,1.219s-0.609,0.551-1.719,0.516c-0.984-0.031-1.625-0.406-1.891-0.562
		c-0.266-0.156-0.247-1.031-1.047-1.031c-0.375,0-0.625,0.891-0.625,0.891s-0.522-0.002-0.688-0.125
		C160.906,71.547,161.219,69.703,161.219,69.703z"/>
	<path d="M185.312,54.75c-0.175,0-6.787-4.115-8.523-4.033c-2.912,0.139-5.595,1.67-6.113,2.448
		c-0.484,0.729,0.92,1.335,1.569,1.288c0.651-0.048,3.628-1.633,4.958-1.559c1.331,0.075,6.438,2.448,6.438,2.448L185.312,54.75z"/>
	<path stroke="#000000" stroke-miterlimit="10" d="M241.902,212.312c0,0-1.404,2.146-4.764,3c-3.49,0.887-6.78,0.75-6.78,0.75
		s4.082-0.916,6.453-1.875c2.37-0.959,3.007-1.771,3.007-1.771L241.902,212.312z"/>
	<path stroke="#000000" stroke-miterlimit="10" d="M285.299,336.061l0.293,1.114l-1.598-0.074c0,0-0.024,2.61,0.15,4.058
		c0.176,1.447,0.856,5.702,1.02,8.965s0.067,6.724,0.067,6.724l-1.561,0.842c0,0,0.143-7.897-0.245-10.885
		c-0.387-2.973-0.646-3.41-0.81-5.153c-0.164-1.744-0.251-4.493-0.251-4.493l-4.407,0.008c0,0-0.459,1.061-0.255,2.355
		c0.204,1.294,0.427,1.688,0.802,3.544c0.373,1.856,0.787,15.418,0.787,15.418l0.626,3.018h-2.011l0.054-3.621
		c0,0-0.302-10.283-0.527-12.001c-0.37-2.831-1.174-4.401-1.322-5.747c-0.1-0.924,0.108-2.815,0.108-2.815l-5.267-0.314
		l-1.677-0.258l-1.913-1.818c0,0,3.893,1.091,7.362,0.972c6.141-0.212,8.618,0.028,8.618,0.028L285.299,336.061z"/>
	<path stroke="#000000" stroke-miterlimit="10" d="M273.059,354.315c0,0-0.415-6.412-0.711-7.397
		c-0.297-0.984-0.208-2.841-0.386-3.853c-0.178-1.013-1.362-3.347-2.162-3.628c-0.801-0.281-1.512,0.591-1.362,1.575
		c0.147,0.984,1.51,1.012,1.925,2.024c0.415,1.013,0.385,3.86,0.562,4.532c0.178,0.671,0.682,2.809,0.682,3.877
		c0,1.069-0.03,2.223-0.03,2.223L273.059,354.315z"/>
	<path stroke="#000000" stroke-miterlimit="10" d="M287.511,321.146c0,0-0.632-0.558-1.388-0.712
		c-0.756-0.154-3.785-0.113-3.685,0.655c0.099,0.77,2.249,1.194,2.749,1.444c0.671,0.338,1.462,0.488,2.25,1.2L287.511,321.146z"/>
	<path stroke="#000000" stroke-miterlimit="10" d="M199.821,452.838c0.109-0.673-0.906-3.952-0.883-7.324
		c0.027-3.832,2.625-7.889,2.625-7.889l-0.29-2.032c0,0-3.951,7.197-3.631,10.278c0.248,2.374,0.169,5.776,0.297,6.454
		c0.129,0.678,0.885,1.544,0.885,1.544S199.711,453.509,199.821,452.838z"/>
	<path stroke="#000000" stroke-miterlimit="10" d="M182.031,584.333l-0.529,2.033c0,0,2.223,2.053,3.077,4.86
		c1.294,4.247-1.939,4.566-1.939,4.566l4.423,0.884l-1.519-5.427l-1.637-4.344l-0.295-2.073L182.031,584.333z"/>
	<path stroke="#000000" stroke-miterlimit="10" d="M192.621,597.315l3.001-0.123c0,0,0.13-2.062-0.622-3.093
		c-0.748-1.03-1.085-0.785-1.706-2.233c-0.621-1.448,0-3.462-1.681-4.934c-1.68-1.473-2.404-1.67-2.818-1.424
		c-0.414,0.246,0.361,3.02,1.293,3.879c0.931,0.859,3.104,3.757,3.232,5.327C193.45,596.283,192.621,597.315,192.621,597.315z"/>
	<path stroke="#000000" stroke-miterlimit="10" d="M203.483,596.75c0,0-1.241-0.909-1.888-2.087
		c-0.646-1.178,0.362-1.693-0.568-2.945c-0.932-1.252-2.664-4.296-3.466-5.032c-0.802-0.736-1.448-1.497-1.991-1.301
		c-0.544,0.196,0.285,1.742,0.904,2.749c0.621,1.007,3.027,3.166,3.207,4.541c0.182,1.375,0.596,3.117,0.207,3.952
		C199.501,597.462,203.483,596.75,203.483,596.75z"/>
	<path stroke="#000000" stroke-miterlimit="10" d="M185.433,582.513"/>
	<path stroke="#000000" stroke-miterlimit="10" d="M206.268,596.874c0,0,0.781-0.864,0.684-2.438
		c-0.098-1.573-1.041-3.116-2.829-4.535c-1.787-1.419-3.412-2.437-3.769-2.745c-0.357-0.309-0.066-0.957-0.066-0.957
		s5.59,3.424,7.346,6.263c0.424,0.685,0.812,3.579-0.357,4.474C206.105,597.83,206.268,596.874,206.268,596.874z"/>
	<path stroke="#000000" stroke-miterlimit="10" d="M159.583,261.292c0-1.404,1.493-2.542,3.333-2.542c0.786,0-2.885,1.09-1.441,2.98
		c1.605,2.105,4.775-1.243,4.775-0.439c0,1.403-1.492,2.542-3.334,2.542C161.076,263.834,159.583,262.695,159.583,261.292z"/>
	
		<ellipse transform="matrix(-0.9608 -0.2772 0.2772 -0.9608 199.0033 404.9422)" stroke="#000000" stroke-miterlimit="10" cx="128.125" cy="188.404" rx="5.034" ry="3.546"/>
	<path stroke="#000000" stroke-miterlimit="10" d="M185.639,433.59c0.107,0.161,2.523,2.31,3.705,2.686
		c1.182,0.376,5.156-0.054,5.156-0.054l-4.834-1.45l-3.275-1.397L185.639,433.59z"/>
	<path stroke="#000000" stroke-miterlimit="10" d="M182.646,439.564l-0.635,0.909c0,0,1.819,4.508,3.369,5.759
		c1.55,1.251,5.249,3.547,5.249,3.547s-3.952-4.801-4.965-6.072C184.654,442.435,182.646,439.564,182.646,439.564z"/>
	<path d="M144.5,314.75c0-3.831,4.192,4.654,5.755,8c2.154,4.613,11.633,11.375,15.454,11.375c3.198,0,8.08-3.801,10.978-7.625
		C180.097,322,185,310.309,185,315c0,9.112-12.521,22.001-19.113,22.001C159.294,337.001,144.5,323.862,144.5,314.75z"/>
	<g>
		<g>
			<path d="M261.202,379.698h1.566v10.821h5.186v1.314h-6.752V379.698z"/>
			<path d="M277.781,386.145h-4.717v4.375h5.257v1.314h-6.824v-12.136h6.554v1.314h-4.987v3.835h4.717V386.145z"/>
			<path d="M282.153,379.698h6.536v1.314h-4.969v4.033h4.591v1.297h-4.591v5.491h-1.567V379.698z"/>
			<path d="M295.024,381.03h-3.691v-1.332h8.985v1.332h-3.709v10.804h-1.584V381.03z"/>
		</g>
		<g>
			<path d="M21.202,380.86c0.792-0.162,1.926-0.252,3.007-0.252c1.674,0,2.755,0.306,3.511,0.99c0.612,0.54,0.955,1.368,0.955,2.305
				c0,1.603-1.008,2.665-2.287,3.097v0.055c0.936,0.323,1.494,1.188,1.782,2.448c0.396,1.692,0.684,2.863,0.937,3.331h-1.621
				c-0.198-0.342-0.468-1.387-0.81-2.898c-0.36-1.675-1.009-2.305-2.431-2.359h-1.476v5.258h-1.566V380.86z M22.769,386.388h1.603
				c1.674,0,2.736-0.918,2.736-2.305c0-1.566-1.134-2.25-2.791-2.269c-0.756,0-1.296,0.072-1.548,0.145V386.388z"/>
			<path d="M34.252,380.698v12.136h-1.567v-12.136H34.252z"/>
			<path d="M48.024,392.294c-0.702,0.252-2.088,0.666-3.727,0.666c-1.836,0-3.349-0.468-4.537-1.603
				c-1.044-1.008-1.693-2.629-1.693-4.52c0.018-3.619,2.503-6.266,6.572-6.266c1.404,0,2.503,0.307,3.025,0.559l-0.378,1.278
				c-0.648-0.288-1.458-0.522-2.683-0.522c-2.953,0-4.879,1.837-4.879,4.88c0,3.078,1.854,4.897,4.681,4.897
				c1.026,0,1.729-0.145,2.089-0.324v-3.619h-2.467v-1.261h3.997V392.294z"/>
			<path d="M53.782,380.698v5.077h5.87v-5.077h1.584v12.136h-1.584v-5.689h-5.87v5.689h-1.566v-12.136H53.782z"/>
			<path d="M68.057,382.031h-3.691v-1.333h8.985v1.333h-3.709v10.803h-1.584V382.031z"/>
		</g>
	</g>
	<path stroke="#000000" stroke-miterlimit="10" d="M221.833,153.625c0,0-4.521,13.375-3.714,17.042
		c5.119,23.257-2.583,30-12.755,32.333c-18.549,4.255-27.005-18.125-27.005-18.125l-0.484-2.75c0,0,10.697,24.708,29.266,18.208
		c12.875-4.507,10.082-15.776,8.719-29.5c-0.484-4.875,3.915-15.708,3.915-15.708L221.833,153.625z"/>
	
		<ellipse transform="matrix(-0.9294 0.3691 -0.3691 -0.9294 463.3785 288.1612)" stroke="#000000" stroke-miterlimit="10" cx="204.125" cy="188.405" rx="5.034" ry="3.546"/>
</g>
<g>
	<path fill="#E6E6E6" stroke="#000000" stroke-width="3" stroke-miterlimit="10" d="M662.37,327.371l-9.017-13.5l-14.081-13.126
		c-3.401-9.675-10.112-29.77-11.772-37.245c-2.434-10.952-3.351-19.275-7.391-31c-3.653-10.604-6.301-12.909-9.865-19.166
		C607.644,208.771,603.5,203,603.5,203s-2.089-8.952-2.669-18.167c-0.344-5.487-2.667-20.666-2.667-20.666
		s2.261-10.334,1.336-17.334S593.808,124,584.25,118c-9.558-6-15.416-5.666-15.416-5.666s-15.701-1.166-19.709-3.834
		c-4.007-2.666-6.238-8.834-6.238-8.834l-0.404-11.724c3.406-3.718,5.863-7.515,6.525-8.942c1.468-3.167,1.713-5.25,1.713-5.25
		s1.148,0.453,2.568-0.562c2.447-1.75,6.016-14.688,4.71-16.521c-1.305-1.833-3.241,0.209-3.241,0.209s1.59-13.812-0.857-20.312
		c-2.446-6.5-9.99-11.979-14.558-13.312S527.334,22,527.334,22s-7.604-0.083-12.271,1.25c-4.667,1.333-12.375,6.812-14.875,13.312
		s-0.875,20.312-0.875,20.312s-1.978-2.042-3.312-0.209c-1.334,1.834,2.312,14.771,4.812,16.521
		c1.451,1.016,2.625,0.562,2.625,0.562s0.25,2.083,1.75,5.25c0.654,1.382,3.059,4.889,6.386,8.425L511,99.666
		c0,0-1.042,4.918-5.375,7.584c-4.333,2.668-24.791,6.584-24.791,6.584s-3-1.584-13.334,4.416S456.75,139,455.75,146
		S455,164.5,455,164.5s-4.463,17.513-4.836,23C449.538,196.715,445,207,445,207s-2.69,2.771-5.5,7.334
		c-3.855,6.257-5.384,8.896-9.333,19.499c-4.368,11.725-6.369,23.381-9,34.333c-1.796,7.476-7.667,24-12.998,33.579l-15.225,13.126
		l-8.774,13.5c0,0-1.65,3.525-0.377,5.55c1.275,2.025,12.451-8.7,12.451-8.7s-0.9,28.481-0.676,30.301
		c0.225,1.818,1.463,3.111,2.307,3.506c0.844,0.394,2.494-0.507,2.494-0.507s1.5,2.307,2.456,2.588
		c0.956,0.281,4.444-0.788,4.444-0.788s0.693,0.844,2.193,0.338c1.499-0.506,4.668-5.85,4.668-5.85s2.941-0.128,4.216-1.853
		c1.276-1.725,6.622-22.822,6.622-22.822l2.098-20.756c0,0,3.617-5.221,12.6-18.877c8.984-13.656,14.001-26.167,18.334-33.75
		c4.333-7.584,5.667-14.084,7.167-22.25s3.667-19.916,3.667-19.916L473.5,200.5c0,0,9.314,17.258,8.75,30.25
		C481.5,248,468.5,266,462.834,290.667c-5.322,23.167,3,61.835,6.332,81.501c3.334,19.667,15.668,46.333,16.334,57.666
		c0.666,11.333-9.334,35.667-7.334,55.667s13.917,48.582,16,54.666c1.283,3.745,2.835,25.816,2.834,33.666
		c0,4.999-4.833,8.667-4.833,8.667s-8.751,4.418-10.917,6.417c-2.166,1.999-3.334,6.666-1.25,7.666s4.5,0.917,4.5,0.917l5.667-0.167
		c0,0,4.167,0.751,7.75,0.834c3.583,0.083,6.583-1.667,6.583-1.667s6.418,1,8.417,0.833c1.999-0.167,5.166-2.747,5.583-4.665
		c0.417-1.918-0.584-2.832-1-6.25c-0.416-3.418,0.918-11.416,0.334-14.792c-0.584-3.376-2.583-7.25-3-11.396s-1.334-45.364,2-68.031
		c3.333-22.667-2.667-30.349-2.334-33.016c0.333-2.667,0.667-7.675,3-11.341c2.333-3.666,1.667-15.671,1.667-15.671
		s2.208-13.379,2.708-42.046s5.375-65.875,5.375-65.875l2-0.25c0,0,2.787,35.958,3.25,64.625s4.059,42.546,4.059,42.546
		s-0.616,12.005,1.542,15.671c2.157,3.666,2.466,8.674,2.774,11.341c0.309,2.667-5.241,10.349-2.158,33.016
		c3.083,22.667,2.235,63.885,1.85,68.031c-0.386,4.146-2.234,8.021-2.775,11.396c-0.539,3.376,0.694,11.374,0.31,14.792
		c-0.386,3.418-1.312,4.332-0.925,6.25c0.385,1.918,3.314,4.498,5.164,4.665c1.849,0.167,7.785-0.833,7.785-0.833
		s2.773,1.75,6.088,1.667c3.314-0.083,7.168-0.834,7.168-0.834l5.242,0.167c0,0,2.234,0.083,4.162-0.917
		c1.927-1,0.847-5.667-1.156-7.666c-2.004-1.999-10.098-6.417-10.098-6.417s-4.47-3.668-4.471-8.667
		c0-7.85,1.92-26.588,3.106-30.333c1.928-6.084,12.465-37.999,14.314-57.999c1.851-20-7.398-44.334-6.783-55.667
		c0.616-11.333,12.025-37.999,15.107-57.666c3.083-19.667,12.019-51.747,6.195-74.668c-8.998-35.418-20.75-42.75-20.25-64.5
		c0.299-12.999,11.5-31.5,11.5-31.5l2.863,13.084c0,0,0.309,11.25,1.695,19.416c1.387,8.166,6.184,17.666,10.191,25.25
		c4.007,7.583,8.691,17.594,17,31.25c8.309,13.656,9.793,18.877,9.793,18.877l1.941,20.756c0,0,4.944,21.098,6.124,22.822
		c1.181,1.726,3.899,1.853,3.899,1.853s2.931,5.344,4.318,5.85c1.387,0.506,2.029-0.338,2.029-0.338s3.226,1.069,4.109,0.788
		c0.885-0.281,2.271-2.588,2.271-2.588s1.527,0.9,2.307,0.507c0.781-0.395,1.926-1.688,2.134-3.506
		c0.207-1.819,0.276-30.301,0.276-30.301s10.336,10.726,11.515,8.7C663.896,330.897,662.37,327.371,662.37,327.371z"/>
	<path stroke="#000000" stroke-miterlimit="10" d="M477.681,169.846l1.984,0.251c0,0-1.891,10.165-2.487,15.885
		c-0.598,5.72-3.722,17.484-3.722,17.484l-1.487-1.196c0,0,3.129-11.794,3.53-16.469C475.9,181.127,477.681,169.846,477.681,169.846
		z"/>
	<path stroke="#000000" stroke-miterlimit="10" d="M462.852,227.426c0,0-2.109,2.488-4.918,2.71
		c-2.916,0.23-5.155-0.856-5.155-0.856s3.347-0.106,5.515-0.74c2.167-0.633,3.038-1.547,3.038-1.547L462.852,227.426z"/>
	<path stroke="#000000" stroke-miterlimit="10" d="M413.781,353.938c0,0,0.354-7.125,0.606-8.219
		c0.253-1.094,0.177-3.156,0.328-4.281c0.151-1.125,1.162-3.719,1.845-4.031c0.682-0.312,1.288,0.656,1.162,1.75
		c-0.126,1.094-1.288,1.125-1.643,2.25c-0.353,1.125-0.328,4.289-0.479,5.035c-0.151,0.746-0.581,3.121-0.581,4.309
		s0.025,2.469,0.025,2.469L413.781,353.938z"/>
	<path stroke="#000000" stroke-miterlimit="10" d="M503.77,578.513"/>
	<path stroke="#000000" stroke-miterlimit="10" d="M577.856,167.845l-2.098,0.204c0,0,0.436,11.141,0.862,16.876
		c0.425,5.736,3.295,17.576,3.295,17.576l1.607-1.161c0,0-2.873-11.872-3.13-16.556C578.137,180.1,577.856,167.845,577.856,167.845z
		"/>
	<path stroke="#000000" stroke-miterlimit="10" d="M585.569,231.312c0,0,1.435,2.146,4.865,3c3.563,0.887,6.924,0.75,6.924,0.75
		s-4.169-0.916-6.59-1.875s-3.071-1.771-3.071-1.771L585.569,231.312z"/>
	<path stroke="#000000" stroke-miterlimit="10" d="M547.433,578.513"/>
	<path stroke="#000000" stroke-miterlimit="10" d="M510.347,431.664c-0.162-0.128-3.463-1.573-4.927-1.623
		c-1.463-0.05-6.006,1.436-6.006,1.436l5.967,0.117l4.137,0.481L510.347,431.664z"/>
	<g>
		<path stroke="#000000" stroke-miterlimit="10" d="M402,335.074l-1.75,1.794c0,0,0.154,0.929-0.047,2.588
			c-0.201,1.66-0.922,6.538-1.109,10.278c-0.188,3.74-0.045,7.708-0.045,7.708l1.811,0.966c0,0-0.157-9.054,0.289-12.479
			c0.444-3.409,0.746-3.846,0.934-5.845c0.188-1.999,0.293-3.023,0.293-3.023L402,335.074z"/>
		<path stroke="#000000" stroke-miterlimit="10" d="M409.188,335.055c0,0-1.518,1.344-1.704,2.523
			c-0.234,1.483-0.367,1.935-0.797,4.062c-0.43,2.128-0.843,17.718-0.843,17.718l1.593-0.692c0,0,0.348-11.81,0.605-13.778
			c0.426-3.247,1.225-5.057,1.395-6.601C409.554,337.228,409.188,335.055,409.188,335.055z"/>
	</g>
	<path stroke="#000000" stroke-miterlimit="10" d="M539.757,431.988c0.182-0.126,3.94-1.523,5.637-1.547
		c1.253-0.018,4.347,0.568,5.961,1.017c0.572,0.159,1.095,0.537,1.095,0.537l-6.926,0.012l-4.781,0.41L539.757,431.988z"/>
	<path stroke="#000000" stroke-miterlimit="10" d="M564.122,334.769c-0.329-0.485-1.263-0.216-1.263-0.216
		s-18.517,4.264-26.685-2.426c-9.279-7.601-6.465-33.986-6.465-33.986l-0.888-3.099l-1.296,2.803c0,0,2.808,25.388-5.303,32.988
		c-7.139,6.689-23.322,2.426-23.322,2.426s-0.816-0.27-1.104,0.216c-0.288,0.485,0.911,1.401,2.206,1.672
		c1.296,0.269,15.055,4.72,23.804-2.804c2.681-2.306,4.116-6.802,4.833-11.851c0.742,5.566,2.396,10.643,5.724,13.145
		c10.009,7.523,25.751,3.073,27.233,2.803C563.08,336.17,564.452,335.254,564.122,334.769z"/>
	<path stroke="#000000" stroke-miterlimit="10" d="M634.063,353.938c0,0-0.392-7.125-0.672-8.219
		c-0.28-1.094-0.195-3.156-0.364-4.281c-0.168-1.125-1.287-3.719-2.044-4.031c-0.756-0.312-1.428,0.656-1.287,1.75
		c0.14,1.094,1.427,1.125,1.819,2.25c0.392,1.125,0.364,4.289,0.532,5.035c0.167,0.746,0.644,3.121,0.644,4.309
		s-0.027,2.469-0.027,2.469L634.063,353.938z"/>
	<g>
		<path stroke="#000000" stroke-miterlimit="10" d="M644.025,334.074l1.926,1.794c0,0-0.17,0.929,0.052,2.588
			c0.222,1.66,1.015,6.538,1.221,10.278c0.206,3.74,0.049,7.708,0.049,7.708l-1.991,0.966c0,0,0.173-9.054-0.318-12.479
			c-0.489-3.409-0.821-3.846-1.027-5.845c-0.206-1.999-0.322-3.023-0.322-3.023L644.025,334.074z"/>
		<path stroke="#000000" stroke-miterlimit="10" d="M637.117,334.055c0,0,1.669,1.344,1.875,2.523
			c0.258,1.483,0.403,1.935,0.876,4.062c0.473,2.128,0.928,17.718,0.928,17.718l-1.753-0.692c0,0-0.382-11.81-0.666-13.778
			c-0.469-3.247-1.348-5.057-1.534-6.601C636.715,336.228,637.117,334.055,637.117,334.055z"/>
	</g>
	<g>
		<path d="M380.783,380.698h1.566v10.821h5.186v1.314h-6.752V380.698z"/>
		<path d="M397.362,387.145h-4.717v4.375h5.257v1.314h-6.824v-12.136h6.554v1.314h-4.987v3.835h4.717V387.145z"/>
		<path d="M401.734,380.698h6.536v1.314h-4.969v4.033h4.591v1.297h-4.591v5.491h-1.567V380.698z"/>
		<path d="M414.605,382.03h-3.691v-1.332h8.985v1.332h-3.709v10.804h-1.584V382.03z"/>
	</g>
	<g>
		<path d="M612.783,380.86c0.792-0.162,1.926-0.252,3.007-0.252c1.674,0,2.755,0.306,3.511,0.99c0.612,0.54,0.955,1.368,0.955,2.305
			c0,1.603-1.008,2.665-2.287,3.097v0.055c0.936,0.323,1.494,1.188,1.782,2.448c0.396,1.692,0.684,2.863,0.937,3.331h-1.621
			c-0.198-0.342-0.468-1.387-0.81-2.898c-0.36-1.675-1.009-2.305-2.431-2.359h-1.476v5.258h-1.566V380.86z M614.349,386.388h1.603
			c1.674,0,2.736-0.918,2.736-2.305c0-1.566-1.134-2.25-2.791-2.269c-0.756,0-1.296,0.072-1.548,0.145V386.388z"/>
		<path d="M625.833,380.698v12.136h-1.567v-12.136H625.833z"/>
		<path d="M639.605,392.294c-0.702,0.252-2.088,0.666-3.727,0.666c-1.836,0-3.349-0.468-4.537-1.603
			c-1.044-1.008-1.693-2.629-1.693-4.52c0.018-3.619,2.503-6.266,6.572-6.266c1.404,0,2.503,0.307,3.025,0.559l-0.378,1.278
			c-0.648-0.288-1.458-0.522-2.683-0.522c-2.953,0-4.879,1.837-4.879,4.88c0,3.078,1.854,4.897,4.681,4.897
			c1.026,0,1.729-0.145,2.089-0.324v-3.619h-2.467v-1.261h3.997V392.294z"/>
		<path d="M645.363,380.698v5.077h5.87v-5.077h1.584v12.136h-1.584v-5.689h-5.87v5.689h-1.566v-12.136H645.363z"/>
		<path d="M659.637,382.031h-3.691v-1.333h8.985v1.333h-3.709v10.803h-1.584V382.031z"/>
	</g>
</g>
<g>
</g>
<g>
</g>
<g>
</g>
<g>
</g>
<g>
</g>
<g>
</g>
<g>
</g>
<g>
</g>
<g>
</g>
<g>
</g>
<g>
</g>
<g>
</g>
<g>
</g>
<g>
</g>
<g>
</g>
<g>
</g>
<g>
</g>
<g>
</g>
</svg>
